<svg width="24" height="24" viewBox="0 0 24 24" fill="none" xmlns="http://www.w3.org/2000/svg">
<path d="M18.7173 8.13446C18.5876 7.91024 18.3791 7.74987 18.1288 7.68271C17.88 7.61648 17.6175 7.65008 17.3937 7.78015L12.9573 10.3411V5.21875C12.9573 4.68469 12.5226 4.25 11.9885 4.25C11.4545 4.25 11.0198 4.68469 11.0198 5.21875V10.3283L6.60648 7.78015C6.38272 7.65054 6.1221 7.61648 5.8714 7.68271C5.62116 7.74988 5.41208 7.91025 5.28296 8.13446C5.01569 8.59754 5.17463 9.1907 5.63724 9.45749L10.0624 12.0128L5.64814 14.5614C5.42392 14.6906 5.26355 14.8996 5.19687 15.1494C5.1297 15.3991 5.16422 15.6602 5.29337 15.8845C5.5502 16.3296 6.17175 16.4975 6.61688 16.2387L11.0198 13.6972V18.7812C11.0198 19.3153 11.4545 19.75 11.9885 19.75C12.5226 19.75 12.9573 19.3153 12.9573 18.7812V13.684L17.3829 16.2387C17.828 16.4975 18.45 16.3296 18.7059 15.8845C18.8355 15.6602 18.8701 15.3991 18.8029 15.1494C18.7362 14.8996 18.5758 14.6906 18.3516 14.5614L13.9374 12.0128L18.3625 9.4575C18.8251 9.19071 18.984 8.59754 18.7173 8.13446Z" fill="#296487"/>
</svg>
