<svg width="66" height="10" viewBox="0 0 66 10" fill="none" xmlns="http://www.w3.org/2000/svg">
<path d="M6.16632 1.07656L7.30679 3.38713C7.33852 3.45143 7.38542 3.50704 7.44343 3.54918C7.50144 3.59132 7.56882 3.61872 7.63978 3.62903L10.1896 3.9996C10.2713 4.01146 10.348 4.04594 10.4111 4.09915C10.4742 4.15235 10.5211 4.22215 10.5466 4.30064C10.5721 4.37914 10.5751 4.46321 10.5553 4.54333C10.5355 4.62345 10.4937 4.69644 10.4346 4.75402L8.58921 6.55251C8.48485 6.65422 8.43753 6.80059 8.46185 6.94387L8.89743 9.48351C8.91137 9.56483 8.90227 9.64843 8.87118 9.72485C8.84008 9.80128 8.78822 9.86748 8.72147 9.91597C8.65471 9.96446 8.57572 9.99331 8.49342 9.99925C8.41113 10.0052 8.32881 9.988 8.25578 9.9496L5.97484 8.75031C5.91134 8.717 5.8407 8.69959 5.76899 8.69959C5.69728 8.69959 5.62664 8.717 5.56314 8.75031L3.28219 9.9496C3.20916 9.988 3.12685 10.0052 3.04455 9.99925C2.96226 9.99331 2.88327 9.96446 2.81651 9.91597C2.74976 9.86748 2.6979 9.80128 2.6668 9.72485C2.6357 9.64843 2.62661 9.56483 2.64054 9.48351L3.07612 6.94387C3.08825 6.87319 3.08299 6.80063 3.0608 6.73245C3.03861 6.66427 3.00016 6.60251 2.94877 6.55251L1.1034 4.75402C1.04428 4.69644 1.00245 4.62345 0.982645 4.54333C0.962842 4.46321 0.965856 4.37914 0.991347 4.30064C1.01684 4.22215 1.06379 4.15235 1.12689 4.09915C1.18999 4.04594 1.26671 4.01146 1.34839 3.9996L3.8982 3.62903C3.96915 3.61872 4.03654 3.59132 4.09455 3.54918C4.15256 3.50704 4.19945 3.45143 4.23119 3.38713L5.37166 1.07656C5.53528 0.747998 6.00403 0.747998 6.16632 1.07656Z" fill="#D1AC62"/>
<path d="M19.8089 1.07656L20.9494 3.38713C20.9811 3.45143 21.028 3.50704 21.086 3.54918C21.144 3.59132 21.2114 3.61872 21.2824 3.62903L23.8322 3.9996C23.9138 4.01146 23.9906 4.04594 24.0537 4.09915C24.1168 4.15235 24.1637 4.22215 24.1892 4.30064C24.2147 4.37914 24.2177 4.46321 24.1979 4.54333C24.1781 4.62345 24.1363 4.69644 24.0772 4.75402L22.2318 6.55251C22.1274 6.65422 22.0801 6.80059 22.1044 6.94387L22.54 9.48351C22.5539 9.56483 22.5449 9.64843 22.5138 9.72485C22.4827 9.80128 22.4308 9.86748 22.364 9.91597C22.2973 9.96446 22.2183 9.99331 22.136 9.99925C22.0537 10.0052 21.9714 9.988 21.8984 9.9496L19.6174 8.75031C19.5539 8.717 19.4833 8.69959 19.4116 8.69959C19.3399 8.69959 19.2692 8.717 19.2057 8.75031L16.9248 9.9496C16.8517 9.988 16.7694 10.0052 16.6871 9.99925C16.6048 9.99331 16.5258 9.96446 16.4591 9.91597C16.3923 9.86748 16.3405 9.80128 16.3094 9.72485C16.2783 9.64843 16.2692 9.56483 16.2831 9.48351L16.7187 6.94387C16.7308 6.87319 16.7256 6.80063 16.7034 6.73245C16.6812 6.66427 16.6427 6.60251 16.5913 6.55251L14.746 4.75402C14.6869 4.69644 14.645 4.62345 14.6252 4.54333C14.6054 4.46321 14.6084 4.37914 14.6339 4.30064C14.6594 4.22215 14.7064 4.15235 14.7695 4.09915C14.8326 4.04594 14.9093 4.01146 14.991 3.9996L17.5408 3.62903C17.6117 3.61872 17.6791 3.59132 17.7371 3.54918C17.7951 3.50704 17.842 3.45143 17.8738 3.38713L19.0142 1.07656C19.1779 0.747998 19.6466 0.747998 19.8089 1.07656Z" fill="#D1AC62"/>
<path d="M33.452 1.07656L34.5924 3.38713C34.6242 3.45143 34.6711 3.50704 34.7291 3.54918C34.7871 3.59132 34.8545 3.61872 34.9254 3.62903L37.4752 3.9996C37.5569 4.01146 37.6336 4.04594 37.6967 4.09915C37.7598 4.15235 37.8068 4.22215 37.8323 4.30064C37.8578 4.37914 37.8608 4.46321 37.841 4.54333C37.8212 4.62345 37.7793 4.69644 37.7202 4.75402L35.8749 6.55251C35.7705 6.65422 35.7232 6.80059 35.7475 6.94387L36.1831 9.48351C36.197 9.56483 36.1879 9.64843 36.1568 9.72485C36.1257 9.80128 36.0739 9.86748 36.0071 9.91597C35.9404 9.96446 35.8614 9.99331 35.7791 9.99925C35.6968 10.0052 35.6145 9.988 35.5414 9.9496L33.2605 8.75031C33.197 8.717 33.1263 8.69959 33.0546 8.69959C32.9829 8.69959 32.9123 8.717 32.8488 8.75031L30.5678 9.9496C30.4948 9.988 30.4125 10.0052 30.3302 9.99925C30.2479 9.99331 30.1689 9.96446 30.1022 9.91597C30.0354 9.86748 29.9835 9.80128 29.9524 9.72485C29.9213 9.64843 29.9123 9.56483 29.9262 9.48351L30.3618 6.94387C30.3739 6.87319 30.3686 6.80063 30.3464 6.73245C30.3243 6.66427 30.2858 6.60251 30.2344 6.55251L28.389 4.75402C28.3299 4.69644 28.2881 4.62345 28.2683 4.54333C28.2485 4.46321 28.2515 4.37914 28.277 4.30064C28.3025 4.22215 28.3494 4.15235 28.4125 4.09915C28.4756 4.04594 28.5524 4.01146 28.634 3.9996L31.1838 3.62903C31.2548 3.61872 31.3222 3.59132 31.3802 3.54918C31.4382 3.50704 31.4851 3.45143 31.5168 3.38713L32.6573 1.07656C32.8209 0.747998 33.2897 0.747998 33.452 1.07656Z" fill="#D1AC62"/>
<path d="M47.0945 1.07656L48.235 3.38713C48.2667 3.45143 48.3136 3.50704 48.3716 3.54918C48.4297 3.59132 48.497 3.61872 48.568 3.62903L51.1178 3.9996C51.1995 4.01146 51.2762 4.04594 51.3393 4.09915C51.4024 4.15235 51.4494 4.22215 51.4749 4.30064C51.5003 4.37914 51.5034 4.46321 51.4836 4.54333C51.4638 4.62345 51.4219 4.69644 51.3628 4.75402L49.5174 6.55251C49.4131 6.65422 49.3658 6.80059 49.3901 6.94387L49.8257 9.48351C49.8396 9.56483 49.8305 9.64843 49.7994 9.72485C49.7683 9.80128 49.7164 9.86748 49.6497 9.91597C49.5829 9.96446 49.5039 9.99331 49.4216 9.99925C49.3394 10.0052 49.257 9.988 49.184 9.9496L46.9031 8.75031C46.8396 8.717 46.7689 8.69959 46.6972 8.69959C46.6255 8.69959 46.5549 8.717 46.4914 8.75031L44.2104 9.9496C44.1374 9.988 44.0551 10.0052 43.9728 9.99925C43.8905 9.99331 43.8115 9.96446 43.7447 9.91597C43.678 9.86748 43.6261 9.80128 43.595 9.72485C43.5639 9.64843 43.5548 9.56483 43.5688 9.48351L44.0043 6.94387C44.0165 6.87319 44.0112 6.80063 43.989 6.73245C43.9668 6.66427 43.9284 6.60251 43.877 6.55251L42.0316 4.75402C41.9725 4.69644 41.9307 4.62345 41.9109 4.54333C41.8911 4.46321 41.8941 4.37914 41.9196 4.30064C41.9451 4.22215 41.992 4.15235 42.0551 4.09915C42.1182 4.04594 42.1949 4.01146 42.2766 3.9996L44.8264 3.62903C44.8974 3.61872 44.9648 3.59132 45.0228 3.54918C45.0808 3.50704 45.1277 3.45143 45.1594 3.38713L46.2999 1.07656C46.4635 0.747998 46.9322 0.747998 47.0945 1.07656Z" fill="#D1AC62"/>
<path d="M60.7374 1.07656L61.8778 3.38713C61.9096 3.45143 61.9565 3.50704 62.0145 3.54918C62.0725 3.59132 62.1399 3.61872 62.2108 3.62903L64.7606 3.9996C64.8423 4.01146 64.919 4.04594 64.9821 4.09915C65.0452 4.15235 65.0922 4.22215 65.1177 4.30064C65.1432 4.37914 65.1462 4.46321 65.1264 4.54333C65.1066 4.62345 65.0647 4.69644 65.0056 4.75402L63.1603 6.55251C63.0559 6.65422 63.0086 6.80059 63.0329 6.94387L63.4685 9.48351C63.4824 9.56483 63.4733 9.64843 63.4422 9.72485C63.4111 9.80128 63.3593 9.86748 63.2925 9.91597C63.2258 9.96446 63.1468 9.99331 63.0645 9.99925C62.9822 10.0052 62.8999 9.988 62.8268 9.9496L60.5459 8.75031C60.4824 8.717 60.4117 8.69959 60.34 8.69959C60.2683 8.69959 60.1977 8.717 60.1342 8.75031L57.8532 9.9496C57.7802 9.988 57.6979 10.0052 57.6156 9.99925C57.5333 9.99331 57.4543 9.96446 57.3876 9.91597C57.3208 9.86748 57.2689 9.80128 57.2378 9.72485C57.2067 9.64843 57.1977 9.56483 57.2116 9.48351L57.6472 6.94387C57.6593 6.87319 57.654 6.80063 57.6318 6.73245C57.6097 6.66427 57.5712 6.60251 57.5198 6.55251L55.6744 4.75402C55.6153 4.69644 55.5735 4.62345 55.5537 4.54333C55.5339 4.46321 55.5369 4.37914 55.5624 4.30064C55.5879 4.22215 55.6348 4.15235 55.6979 4.09915C55.761 4.04594 55.8378 4.01146 55.9194 3.9996L58.4692 3.62903C58.5402 3.61872 58.6076 3.59132 58.6656 3.54918C58.7236 3.50704 58.7705 3.45143 58.8022 3.38713L59.9427 1.07656C60.1063 0.747998 60.5751 0.747998 60.7374 1.07656Z" fill="#C9C9C9"/>
</svg>
