<svg width="21" height="21" viewBox="0 0 21 21" fill="none" xmlns="http://www.w3.org/2000/svg">
<circle cx="10.5" cy="10.5" r="10.5" fill="#E0EEFD"/>
<path d="M9.44422 9.95056H8.03605C7.84166 9.95056 7.68401 10.1082 7.68401 10.3026C7.68401 10.497 7.84166 10.6546 8.03605 10.6546H9.44422C9.63861 10.6546 9.79626 10.497 9.79626 10.3026C9.79626 10.1082 9.63861 9.95056 9.44422 9.95056Z" fill="#364C6F"/>
<path d="M10.8524 8.54468H8.03605C7.84166 8.54468 7.68401 8.70233 7.68401 8.89672C7.68401 9.09111 7.84166 9.24876 8.03605 9.24876H10.8524C11.0468 9.24876 11.2044 9.09111 11.2044 8.89672C11.2044 8.70233 11.0468 8.54468 10.8524 8.54468Z" fill="#364C6F"/>
<path d="M12.2603 12.0658C12.5403 12.0654 12.8087 11.954 13.0067 11.7561C13.2047 11.5581 13.3161 11.2896 13.3164 11.0096V7.48923C13.3161 7.20928 13.2047 6.94083 13.0067 6.7428C12.8087 6.54488 12.5403 6.43348 12.2603 6.43311H6.62765C6.3477 6.4335 6.07925 6.54489 5.88122 6.7428C5.6833 6.94083 5.5719 7.20928 5.57153 7.48923V11.0096C5.57192 11.2896 5.68331 11.5581 5.88122 11.7561C6.07925 11.954 6.3477 12.0654 6.62765 12.0658H6.97969V12.9754C6.9794 13.1625 7.05346 13.3418 7.18557 13.4742C7.31769 13.6066 7.49696 13.6808 7.68396 13.6808C7.87089 13.6807 8.05024 13.6064 8.18225 13.4739L9.59042 12.0658L12.2603 12.0658ZM9.19479 11.4645L7.68378 12.9754V11.7081C7.68073 11.5159 7.52396 11.3617 7.33173 11.3617H6.62765C6.43326 11.3617 6.27561 11.2041 6.27561 11.0097V7.48926C6.27561 7.29487 6.43326 7.13721 6.62765 7.13721H12.2603C12.3537 7.13721 12.4432 7.17434 12.5092 7.24035C12.5752 7.30636 12.6124 7.39584 12.6124 7.48926V11.0097C12.6124 11.1031 12.5752 11.1926 12.5092 11.2586C12.4432 11.3246 12.3537 11.3617 12.2603 11.3617H9.44398C9.35057 11.3615 9.26089 11.3985 9.19478 11.4646L9.19479 11.4645Z" fill="#364C6F"/>
<path d="M14.3727 8.54471C14.1784 8.54471 14.0207 8.70236 14.0207 8.89675C14.0207 9.09114 14.1784 9.2488 14.3727 9.2488C14.4662 9.2488 14.5556 9.28593 14.6217 9.35193C14.6877 9.41794 14.7248 9.50743 14.7248 9.60084V12.4172C14.7248 12.5106 14.6877 12.6001 14.6217 12.6661C14.5556 12.7321 14.4662 12.7692 14.3727 12.7692H13.6687C13.4743 12.7692 13.3166 12.9269 13.3166 13.1213V14.3886L11.8056 12.872C11.7395 12.806 11.6498 12.769 11.5564 12.7692H10.1482C10.0548 12.7695 9.96505 12.7326 9.89904 12.6664C9.83333 12.5986 9.74316 12.56 9.64867 12.5593C9.55427 12.5586 9.46351 12.5959 9.39681 12.6627C9.33021 12.7296 9.29318 12.8205 9.29406 12.9149C9.29504 13.0093 9.33394 13.0994 9.40191 13.1648C9.59964 13.363 9.86829 13.4741 10.1482 13.4733H11.4155L12.8237 14.8814C12.9561 15.0112 13.1344 15.0836 13.3198 15.0827C13.5053 15.0818 13.6829 15.0079 13.8141 14.8769C13.9453 14.7459 14.0195 14.5684 14.0207 14.3829V13.4733H14.3727C14.6527 13.4729 14.9211 13.3615 15.1191 13.1636C15.3171 12.9655 15.4285 12.6971 15.4288 12.4171V9.6008C15.4284 9.32085 15.3171 9.0524 15.1191 8.85437C14.9211 8.65645 14.6527 8.54505 14.3727 8.54468L14.3727 8.54471Z" fill="#364C6F"/>
</svg>
