<svg width="24" height="24" viewBox="0 0 24 24" fill="none" xmlns="http://www.w3.org/2000/svg">
<path d="M17.6774 6H6.32258C5.7068 6.0007 5.11644 6.25289 4.68102 6.70123C4.2456 7.14957 4.00068 7.75745 4 8.3915V15.6085C4 16.927 5.04206 18 6.32258 18H17.6774C18.9579 18 20 16.927 20 15.6085V8.3915C20 7.07298 18.9579 6 17.6774 6ZM16.991 7.59433L16.2787 8.1736L12.48 11.2613C12.1961 11.4898 11.8039 11.4898 11.52 11.2613L7.85548 8.27989L7.01058 7.59433H16.9915H16.991ZM17.6774 16.4057H6.32258C5.89574 16.4057 5.54839 16.048 5.54839 15.6085V8.44198L10.56 12.5155C10.9832 12.8609 11.4942 13.031 12 13.031C12.5058 13.031 13.0168 12.8609 13.44 12.5155L18.4516 8.44358V15.6085C18.4516 16.048 18.1043 16.4057 17.6774 16.4057Z" fill="#296487"/>
</svg>
