<svg width="24" height="23" viewBox="0 0 24 23" fill="none" xmlns="http://www.w3.org/2000/svg">
<g clip-path="url(#clip0_1_4773)">
<path d="M14.7586 17.0872H8.47559V5.91016H14.7586V17.0872Z" fill="#FF5F00"/>
<path d="M8.87468 11.5001C8.87374 10.4237 9.12017 9.36123 9.59535 8.39309C10.0705 7.42496 10.762 6.57652 11.6173 5.91201C10.5581 5.08796 9.28601 4.57553 7.94647 4.43326C6.60694 4.291 5.25399 4.52465 4.04225 5.1075C2.83051 5.69036 1.80885 6.59892 1.09405 7.72934C0.379241 8.85976 0.000115855 10.1664 0 11.5001C0.00025853 12.8335 0.379428 14.14 1.09419 15.2702C1.80895 16.4005 2.83047 17.3089 4.04204 17.8917C5.2536 18.4746 6.60636 18.7083 7.94574 18.5662C9.28512 18.4241 10.5571 17.9119 11.6164 17.0881C10.7613 16.4234 10.0701 15.5749 9.59511 14.6068C9.12012 13.6387 8.87376 12.5763 8.87468 11.5001Z" fill="#EB001B"/>
<path d="M23.2347 11.5001C23.2345 12.8337 22.8554 14.1403 22.1406 15.2708C21.4258 16.4012 20.4042 17.3097 19.1924 17.8926C17.9807 18.4755 16.6277 18.7091 15.2882 18.5668C13.9487 18.4246 12.6766 17.9121 11.6173 17.0881C13.2873 15.7867 14.36 13.7675 14.36 11.5001C14.36 9.23263 13.2873 7.21343 11.6173 5.91201C12.6766 5.08796 13.9487 4.57553 15.2882 4.43326C16.6277 4.291 17.9807 4.52465 19.1924 5.1075C20.4042 5.69036 21.4258 6.59892 22.1406 7.72934C22.8554 8.85976 23.2345 10.1664 23.2347 11.5001Z" fill="#F79E1B"/>
</g>
<defs>
<clipPath id="clip0_1_4773">
<rect width="23.2347" height="23" fill="white"/>
</clipPath>
</defs>
</svg>
