<svg width="52" height="80" viewBox="0 0 52 80" fill="none" xmlns="http://www.w3.org/2000/svg">
<path d="M51.402 7.82445V4.76922C51.402 3.50394 50.8997 2.29084 50.0054 1.39661C49.1111 0.502294 47.8981 8.08946e-06 46.6328 8.08946e-06H43.5776C40.1501 8.08946e-06 36.7948 0.984836 33.9111 2.83788C31.028 4.6908 28.7378 7.33367 27.3143 10.4519C27.0243 11.0772 26.3977 11.4775 25.708 11.4775C25.0183 11.4775 24.3917 11.0772 24.1017 10.4519C22.6771 7.33171 20.3849 4.68705 17.4993 2.83397C14.6129 0.98105 11.2543 -0.00325552 7.82445 8.08946e-06H4.76921C3.50393 8.08946e-06 2.29083 0.502294 1.3966 1.39661C0.502285 2.29092 0 3.50392 0 4.76922V7.82445C0 12.5657 1.88359 17.1124 5.23581 20.4652C8.58869 23.8175 13.1354 25.7011 17.8766 25.7011C19.1942 25.7011 20.4581 26.2244 21.39 27.1563C22.322 28.0882 22.8453 29.3522 22.8453 30.6697V31.2555C22.8179 31.9573 23.0416 32.6457 23.4757 33.1977C23.9098 33.7497 24.5268 34.1296 25.2152 34.2679C26.0528 34.4126 26.9108 34.1768 27.5565 33.6248C28.2022 33.0728 28.5687 32.262 28.5566 31.4122V30.6696C28.5566 29.3521 29.08 28.0881 30.0119 27.1562C30.9438 26.2243 32.2078 25.7009 33.5253 25.7009C38.2665 25.7009 42.8132 23.8173 46.1661 20.4651C49.5183 17.1122 51.4019 12.5655 51.4019 7.82432L51.402 7.82445Z" fill="#364C6F"/>
<path d="M27.4276 59.9701C27.4276 60.9243 26.6544 61.6975 25.7002 61.6975C24.746 61.6975 23.9728 60.9243 23.9728 59.9701C23.9728 59.0158 24.746 58.2426 25.7002 58.2426C26.6544 58.2426 27.4276 59.0158 27.4276 59.9701Z" fill="#364C6F"/>
<path d="M45.6905 60.0103C45.6905 54.7089 43.5845 49.6242 39.8358 45.8755C36.087 42.1267 31.0023 40.0207 25.7009 40.0207C20.3995 40.0207 15.3148 42.1267 11.566 45.8755C7.81728 49.6242 5.71128 54.7089 5.71128 60.0103C5.71128 65.3117 7.81728 70.3964 11.566 74.1452C15.3148 77.8939 20.3995 80 25.7009 80C31.0023 80 36.087 77.8939 39.8358 74.1452C43.5845 70.3964 45.6905 65.3117 45.6905 60.0103ZM31.4122 60.0103C31.4014 60.4935 31.3294 60.9735 31.198 61.4382L32.0974 62.3235C32.8197 63.0451 33.1014 64.0975 32.8369 65.0836C32.573 66.069 31.803 66.8397 30.8168 67.1036C29.8307 67.3681 28.7784 67.0857 28.0568 66.3642L27.1287 65.5075C26.1962 65.7771 25.2056 65.7771 24.2731 65.5075L23.3736 66.4069C22.6514 67.1291 21.5997 67.4108 20.6136 67.1463C19.6275 66.8824 18.8575 66.1124 18.5929 65.1263C18.3291 64.1402 18.6108 63.0878 19.333 62.3662L20.2324 61.4809C19.9628 60.5483 19.9628 59.5584 20.2324 58.6252L19.347 57.7398C18.6255 57.0183 18.3431 55.9665 18.6076 54.9804C18.8715 53.9943 19.6422 53.2243 20.6276 52.9598C21.6137 52.6959 22.6661 52.9776 23.3877 53.6992L24.2871 54.5986C25.2203 54.3289 26.2102 54.3289 27.1427 54.5986L28.0421 53.6992H28.0428C28.7643 52.9776 29.8161 52.6959 30.8022 52.9598C31.7883 53.2243 32.5583 53.9943 32.8228 54.9804C33.0867 55.9665 32.805 57.0182 32.0834 57.7398L31.198 58.6252C31.3262 59.0765 31.3982 59.5418 31.4122 60.0103H31.4122Z" fill="#364C6F"/>
</svg>
