<svg width="24" height="58" viewBox="0 0 24 58" fill="none" xmlns="http://www.w3.org/2000/svg">
<mask id="mask0_1_4518" style="mask-type:alpha" maskUnits="userSpaceOnUse" x="0" y="2" width="24" height="24">
<rect y="2" width="24" height="24" fill="#D9D9D9"/>
</mask>
<g mask="url(#mask0_1_4518)">
</g>
<path d="M9.93412 5.0175C9.90412 4.9875 9.86287 4.96875 9.81787 4.96875C9.77287 4.96875 9.73162 4.9875 9.70162 5.0175L8.76412 5.955C8.70037 6.01875 8.70037 6.12375 8.76412 6.1875L17.8129 15.2362C17.8504 15.27 17.8879 15.2887 17.9291 15.2887C17.9704 15.2887 18.0079 15.27 18.0454 15.2362L18.9829 14.2987C19.0166 14.265 19.0354 14.22 19.0316 14.175C19.0316 14.13 19.0129 14.0925 18.9829 14.0625L9.93412 5.0175Z" fill="#999999"/>
<path d="M1.10572 19.7819L0 20.8877L3.11044 23.998L4.21616 22.8923L1.10572 19.7819Z" fill="#999999"/>
<path d="M16.1143 8.33625C16.2343 8.33625 16.3468 8.29125 16.4331 8.205L19.6431 4.995C19.8193 4.81875 19.8193 4.53375 19.6431 4.3575C19.5568 4.27125 19.4443 4.22625 19.3243 4.22625C19.2043 4.22625 19.0918 4.27125 19.0056 4.3575L15.7956 7.5675C15.7093 7.65375 15.6643 7.76625 15.6643 7.88625C15.6643 8.00625 15.7093 8.11875 15.7956 8.205C15.8818 8.29125 15.9943 8.33625 16.1143 8.33625ZM23.9893 8.80875C23.9443 8.6025 23.7606 8.45625 23.5506 8.45625C23.5168 8.45625 23.4868 8.46 23.4531 8.4675L18.1881 9.61875C18.0718 9.645 17.9706 9.7125 17.9068 9.81375C17.8431 9.915 17.8206 10.035 17.8468 10.1512C17.8918 10.3575 18.0756 10.5037 18.2856 10.5037C18.3156 10.5037 18.3493 10.5 18.3831 10.4925L23.6518 9.3375C23.7681 9.31125 23.8693 9.24375 23.9331 9.1425C23.9931 9.045 24.0156 8.925 23.9893 8.80875ZM13.8456 6.1575C13.8793 6.165 13.9093 6.16875 13.9431 6.16875C14.1531 6.16875 14.3368 6.01875 14.3818 5.81625L15.5368 0.5475C15.5631 0.43125 15.5406 0.31125 15.4768 0.21C15.4131 0.10875 15.3118 0.0375 15.1956 0.015C15.1618 0.00375 15.1281 0 15.0943 0C14.8806 0 14.7006 0.14625 14.6556 0.3525L13.5006 5.62125C13.4743 5.7375 13.4968 5.8575 13.5606 5.95875C13.6281 6.06 13.7293 6.13125 13.8456 6.1575ZM8.67432 6.94125L1.92432 19.755L4.24557 22.0763L7.61682 20.3025L8.40807 21.6788C8.49057 21.8213 8.63682 21.9075 8.79807 21.9075C8.87307 21.9075 8.94807 21.885 9.02307 21.8438L13.0318 19.5413C13.2456 19.4212 13.3206 19.1475 13.2006 18.93L12.5106 17.7262L17.0631 15.33L8.67432 6.94125ZM8.96307 20.8425L8.41182 19.8862L11.7156 18.1462L12.1956 18.99L8.96307 20.8425Z" fill="#999999"/>
</svg>
